# Blender v2.82 (sub 7) OBJ File: 'SkyBox.blend'
# www.blender.org
mtllib Geometry/SkyBox/SkyBox.mtl
o Cube
v 28.567398 28.567398 -28.567398
v 28.567398 -28.567398 -28.567398
v 28.567398 28.567398 28.567398
v 28.567398 -28.567398 28.567398
v -28.567398 28.567398 -28.567398
v -28.567398 -28.567398 -28.567398
v -28.567398 28.567398 28.567398
v -28.567398 -28.567398 28.567398
vt 0.748062 0.671588
vt 0.998062 1.002198
vt 0.998062 0.673655
vt 0.000000 0.335728
vt 0.250000 0.666339
vt 0.250000 0.335728
vt 0.750000 0.333661
vt 1.000000 0.668405
vt 1.000000 0.333661
vt 0.748062 0.000984
vt 0.998062 0.333661
vt 0.998062 0.000984
vt 0.500000 0.668405
vt 0.500000 0.333661
vt 0.750000 0.668405
vt 0.748062 1.002198
vt 0.000000 0.666339
vt 0.748062 0.335728
vn -0.5773 -0.5773 -0.5773
vn 0.5773 -0.5773 0.5773
vn -0.5773 -0.5773 0.5773
vn 0.5773 0.5773 -0.5773
vn -0.5773 0.5773 -0.5773
vn 0.5773 0.5773 0.5773
vn 0.5773 -0.5773 -0.5773
vn -0.5773 0.5773 0.5773
g Cube_Cube_Material
usemtl Material
s 1
f 3/1/1 5/2/2 1/3/3
f 8/4/4 3/5/1 4/6/5
f 6/7/6 7/8/7 8/9/4
f 8/10/4 2/11/8 6/12/6
f 4/6/5 1/13/3 2/14/8
f 2/14/8 5/15/2 6/7/6
f 3/1/1 7/16/7 5/2/2
f 8/4/4 7/17/7 3/5/1
f 6/7/6 5/15/2 7/8/7
f 8/10/4 4/18/5 2/11/8
f 4/6/5 3/5/1 1/13/3
f 2/14/8 1/13/3 5/15/2
